<svg xmlns="http://www.w3.org/2000/svg" viewBox="0 0 512 512"><path transform="translate(0, 44)" d="M80 96V376a16 16 0 0 1-16 16H32a16 16 0 0 1-16-16V48a16 16 0 0 1 16-16h80v64zM496 32H304a16 16 0 0 0-16 16v32a16 16 0 0 0 16 16h192a16 16 0 0 0 16-16V48a16 16 0 0 0-16-16zM496 131H200a16 16 0 0 0-16 16v32a16 16 0 0 0 16 16h296a16 16 0 0 0 16-16v-32a16 16 0 0 0-16-16zM496 230H200a16 16 0 0 0-16 16v32a16 16 0 0 0 16 16h296a16 16 0 0 0 16-16v-32a16 16 0 0 0-16-16zM496 329H200a16 16 0 0 0-16 16v32a16 16 0 0 0 16 16h296a16 16 0 0 0 16-16v-32a16 16 0 0 0-16-16z"/><path transform="translate(0, 44)" d="M110 144c0 14.19 17.24 21.37 27.31 11.29l96-80a16 16 0 0 0 0-22.62l-96-80c-10.05-10.02-27.31-2.89-27.31 11.33z"/></svg>
