<svg xmlns="http://www.w3.org/2000/svg" viewBox="0 0 512 512"><path d="M80 368V80a16 16 0 0 0-16-16H32a16 16 0 0 0-16 16V416a16 16 0 0 0 16 16h80v-64zM496 64H200a16 16 0 0 0-16 16v32a16 16 0 0 0 16 16h296a16 16 0 0 0 16-16V48a 16 16 0 0 0-16-16zM496 163H200a16 16 0 0 0-16 16v32a16 16 0 0 0 16 16h296a16 16 0 0 0 16-16v-32a16 16 0 0 0-16-16zM262 256H200a16 16 0 0 0-16 16v32a16 16 0 0 0 16 16h296a16 16 0 0 0 16-16v-32 a 16 16 0 0 0-16-16zM496 361H304a16 16 0 0 0-16 16v32a16 16 0 0 0 16 16h192 a16 16 0 0 0 16-16v-32a 16 16 0 0 0-16-16z"/><path transform="translate(0, 0)" d="M110 480c0 14.19 17.24 21.37 27.31 11.29l96-80a16 16 0 0 0 0-22.62l-96-80c-10.05-10.02-27.31-2.89-27.31 11.33z"/></svg>
