<svg viewBox="0 0 18 18" fill="none" xmlns="http://www.w3.org/2000/svg">
<path d="M9.94629 11.1504L11.8066 13.0107C11.5225 13.5527 11.4932 14.0918 11.792 14.3906L15.1875 17.7861C15.6152 18.2139 16.5469 17.9795 17.2617 17.2617C17.9795 16.5439 18.2139 15.6152 17.7861 15.1875L14.3936 11.792C14.0918 11.4932 13.5527 11.5225 13.0107 11.8037L11.1504 9.94629L9.94629 11.1504ZM6.375 0C2.85352 0 0 2.85352 0 6.375C0 9.89648 2.85352 12.75 6.375 12.75C9.89648 12.75 12.75 9.89648 12.75 6.375C12.75 2.85352 9.89648 0 6.375 0ZM6.375 11.25C3.68262 11.25 1.5 9.06738 1.5 6.375C1.5 3.68262 3.68262 1.5 6.375 1.5C9.06738 1.5 11.25 3.68262 11.25 6.375C11.25 9.06738 9.06738 11.25 6.375 11.25Z" fill="#AEB8C3"/>
</svg>
